<svg xmlns="http://www.w3.org/2000/svg" viewBox="0 0 16 16"><path d="M 6.46875 1 C 6.203125 1.015625 6 1.234375 6 1.5 L 6 2.375 C 6 3.578125 5.671875 4.457031 5.40625 5 L 1 5 L 1 14 L 11.6875 14 C 12.402344 14 13.03125 13.511719 13.1875 12.816406 C 13.1875 12.804688 13.191406 12.789063 13.191406 12.777344 L 13.996094 6.773438 L 13.984375 6.820313 C 14.191406 5.886719 13.445313 5 12.488281 5 L 9 5 L 9 3.25 C 9 2.132813 8.3125 1.460938 7.6875 1.210938 C 7.0625 0.957031 6.46875 1 6.46875 1 Z M 7 2.078125 C 7.132813 2.097656 7.164063 2.074219 7.3125 2.132813 C 7.6875 2.289063 8 2.492188 8 3.25 L 8 5.5 C 8 5.777344 8.222656 6 8.5 6 L 12.488281 6 C 12.847656 6 13.078125 6.285156 13.011719 6.601563 C 13.007813 6.617188 13.003906 6.628906 13 6.644531 L 12.207031 12.605469 C 12.15625 12.828125 11.949219 13 11.6875 13 L 6 13 L 6 6.019531 C 6.226563 5.671875 7 4.339844 7 2.375 Z M 2 6 L 5 6 L 5 13 L 2 13 Z M 3.5 11 C 3.222656 11 3 11.222656 3 11.5 C 3 11.777344 3.222656 12 3.5 12 C 3.777344 12 4 11.777344 4 11.5 C 4 11.222656 3.777344 11 3.5 11 Z"/></svg>